<?xml version="1.0" encoding="utf-8"?>
<!-- Generator: Adobe Illustrator 27.0.0, SVG Export Plug-In . SVG Version: 6.00 Build 0)  -->
<svg version="1.1" id="Layer_1" xmlns="http://www.w3.org/2000/svg" xmlns:xlink="http://www.w3.org/1999/xlink" x="0px" y="0px"
	 viewBox="0 0 684.1 240.5" style="enable-background:new 0 0 684.1 240.5;" xml:space="preserve">
<style type="text/css">
	.st0{enable-background:new    ;}
	.st1{fill:#194073;}
	.st2{fill:#FFFFFF;}
	.st3{fill-rule:evenodd;clip-rule:evenodd;fill:#FFFFFF;}
	.st4{fill-rule:evenodd;clip-rule:evenodd;fill:#194073;}
</style>
<g>
	<g>
		<g>
			<path class="st1" d="M24.8,184.3c1.1,0,2.2,0,3.2,0c2.1,0.1,4.2,0,6.2,0.3c4.1,0.6,7,3.8,7.5,8c0.3,2.2,0.2,4.4-0.5,6.5
				c-1.3,3.9-4.1,5.9-8,6.3c-2.7,0.3-5.4,0.1-8.1,0.2c-0.1,0-0.2-0.1-0.3-0.1C24.8,198.6,24.8,191.5,24.8,184.3z M27.3,203.8
				c2.2-0.2,4.4-0.2,6.5-0.7c2.9-0.6,4.7-2.6,5.1-5.5c0.3-1.8,0.3-3.7,0-5.5c-0.5-3.3-2.9-5.4-6.2-5.7c-1.5-0.1-3.1-0.1-4.6-0.2
				c-0.7,0-0.9,0.2-0.9,0.9c0,5.2,0,10.4,0,15.6C27.2,203.1,27.3,203.3,27.3,203.8z"/>
			<path class="st1" d="M476.1,205.6c-0.7,0-1.4,0-2.2,0c0-0.9,0-1.7,0-2.5c0-2.7,0-5.4,0-8.1c0-2.1-0.9-3.2-2.6-3.5
				c-2.1-0.4-4.1,0.4-4.8,2.2c-0.3,0.9-0.5,1.9-0.6,2.9c-0.1,3,0,5.9,0,9c-0.8,0-1.5,0-2.3,0c0-3.1,0-6.1,0-9.1c0-0.5,0-1,0-1.5
				c-0.1-1.4-0.4-2.8-1.9-3.4c-1.5-0.6-3.7-0.3-4.7,0.8s-1.3,2.5-1.3,3.9c-0.1,2.7,0,5.4,0,8.1c0,0.4,0,0.7,0,1.2
				c-0.8,0-1.5,0-2.3,0c0-5.3,0-10.6,0-16c0.6,0.1,1.4-0.1,1.8,0.3c0.4,0.4,0.3,1.2,0.5,2c1.3-1.8,3-2.6,5.1-2.5
				c2,0.1,3.7,0.7,4.7,2.8c1-1.5,2.3-2.5,3.9-2.6c1.2-0.1,2.5-0.1,3.7,0.2c2,0.5,2.9,2.2,3,4.1c0.1,3.8,0.1,7.7,0.1,11.5
				C476.2,205.4,476.1,205.5,476.1,205.6z"/>
			<path class="st1" d="M412.9,192.1c1.8-2.5,4.1-3.1,6.8-2.6c2.3,0.4,3.7,1.7,3.8,4c0.2,4,0,8,0,12.1c-0.7,0-1.4,0-2.3,0
				c0-0.9,0-1.8,0-2.6c0-2.6,0-5.3,0-7.9c0-2.2-0.9-3.4-2.7-3.7c-2.1-0.4-4.1,0.6-4.7,2.5c-0.3,1-0.4,2-0.5,3.1
				c-0.1,2.9,0,5.7,0,8.7c-0.8,0-1.5,0-2.3,0c0-1,0-1.9,0-2.8c0-2.6,0-5.3,0-7.9c0-2-0.9-3.1-2.7-3.5c-2-0.4-4,0.5-4.6,2.2
				c-0.4,1-0.6,2.2-0.6,3.3c-0.1,2.9,0,5.7,0,8.7c-0.8,0-1.5,0-2.3,0c0-5.3,0-10.6,0-15.9c0.6,0,1.2,0,1.8,0
				c0.1,0.7,0.3,1.3,0.5,2.1c1.4-1.8,3-2.6,5.1-2.5C410.2,189.4,411.9,190.1,412.9,192.1z"/>
			<path class="st1" d="M199.9,192c1.6-2.2,3.7-2.8,6.1-2.5c2.6,0.2,4.5,1.9,5.3,4.7c0.7,2.4,0.7,4.8,0,7.2
				c-1.4,4.9-7.3,6.3-10.9,2.7c-0.1-0.1-0.2-0.2-0.4-0.3c0,0.3,0,0.5,0,0.8c0,2.5,0,4.9,0.1,7.4c0,1.1-0.6,0.9-1.3,1
				c-0.7,0-1.2,0-1.2-1c0-7.1,0-14.3,0-21.4c0-0.6,0-1,0.8-1c0.6,0,1.3-0.1,1.3,0.9C199.6,190.9,199.8,191.3,199.9,192z
				 M199.8,197.7c0.2,1.1,0.3,2.3,0.6,3.5c0.5,1.8,1.8,2.6,3.6,2.8c1.8,0.2,3.4-0.4,4.2-2.1c1.4-2.7,1.4-5.5,0.2-8.3
				c-0.7-1.7-2.5-2.5-4.4-2.3c-2.1,0.2-3.3,1.2-3.7,3.1C200,195.4,200,196.5,199.8,197.7z"/>
			<path class="st1" d="M334.5,191.7c0-2.5,0-4.9,0-7.2c0-1.6,0-1.6,1.6-1.5c0.2,0,0.5,0,0.8,0.1c0,0.4,0.1,0.7,0.1,1.1
				c0,6.8,0,13.6,0,20.5c0,0.5,0.2,1.2-0.8,1.2c-0.8,0-1.4,0-1.4-1.1c0-0.3-0.1-0.6-0.2-0.8c-1.1,0.6-2,1.5-3.2,1.9
				c-4,1.2-7.3-0.8-8.3-4.8c-0.6-2.4-0.6-4.8,0.3-7.2c1.6-4.6,7.2-5.8,10.7-2.4C334.2,191.4,334.3,191.5,334.5,191.7z M334.7,197.8
				c-0.2-1.2-0.4-2.6-0.8-3.9c-0.5-1.7-2-2.4-3.6-2.5c-1.7-0.1-3.1,0.3-3.9,1.8c-1.5,2.9-1.5,5.9-0.2,8.9c0.8,1.7,2.5,2.1,4.3,2
				c1.8-0.2,3.2-0.9,3.7-2.8C334.4,200.2,334.5,199,334.7,197.8z"/>
			<path class="st1" d="M88.5,203.5c-1.3,1.6-2.8,2.5-4.7,2.5c-3.7,0.1-6.1-1.8-6.8-5.4c-0.4-2-0.4-4,0.1-6.1
				c0.6-2.4,1.8-4.2,4.3-4.8c2.5-0.7,4.9-0.3,6.8,1.8c0.1,0.1,0.2,0.1,0.3,0.2c0-2.9,0-5.8,0-8.7c0.8,0,1.5,0,2.3,0
				c0,0.4,0.1,0.7,0.1,1.1c0,6.9,0,13.7,0,20.6c0,0.6,0.1,1.2-0.8,1.1c-0.7,0-1.3,0-1.3-1C88.8,204.4,88.6,204,88.5,203.5z
				 M88.6,197.9c-0.1-1.1-0.2-2.2-0.4-3.2c-0.4-2.1-1.8-3.2-3.9-3.4c-2.1-0.2-3.6,0.7-4.4,2.6c-1,2.5-1,5.1,0,7.6
				c0.7,1.8,2.3,2.6,4.5,2.4c2-0.2,3.4-1.2,3.8-3.1C88.4,199.9,88.4,198.9,88.6,197.9z"/>
			<path class="st1" d="M522,212.9c-0.8,0-1.5,0-2.3,0c0-7.7,0-15.4,0-23.2c0.6,0,1.2,0,1.8,0c0.1,0.7,0.3,1.3,0.4,2
				c0.2-0.1,0.3-0.1,0.3-0.1c1.9-2.3,4.4-2.6,7.1-1.9c2.7,0.8,3.8,3,4.2,5.6c0.4,2,0.3,4-0.3,6c-1.4,5-7.2,6.4-10.9,2.8
				c-0.1-0.1-0.2-0.2-0.4-0.3C522,206.8,522,209.8,522,212.9z M531.5,197.7c-0.3-1.3-0.5-2.6-0.9-3.8c-0.7-1.8-2.4-2.7-4.4-2.5
				c-2.2,0.2-3.4,1.1-3.9,3.1c-0.5,2.1-0.5,4.2,0,6.2s1.7,3.1,3.8,3.3c2,0.2,3.7-0.6,4.4-2.6C531.1,200.3,531.2,199,531.5,197.7z"/>
			<path class="st1" d="M259.6,205.8c-0.6-0.1-1.4,0-1.7-0.4c-0.3-0.3-0.3-1.1-0.4-1.8c-0.2,0.1-0.3,0.1-0.4,0.2
				c-1.9,2.2-4.3,2.5-6.8,1.8c-2.5-0.6-3.7-2.5-4.3-4.8c-0.5-2.3-0.5-4.7,0.2-7c1.6-4.8,7.2-6.1,10.8-2.5c0.1,0.1,0.2,0.2,0.4,0.3
				c0-1.5,0-2.9,0-4.3c0-1.4,0-2.9,0-4.4c0.8,0,1.5,0,2.3,0C259.6,190.5,259.6,198,259.6,205.8z M257.5,197.9
				c-0.2-1.3-0.3-2.6-0.7-3.8c-0.5-1.8-1.9-2.5-3.7-2.7c-1.8-0.2-3.3,0.4-4.1,2.1c-1.4,2.9-1.4,5.8,0,8.7c0.8,1.7,2.5,2.1,4.3,1.9
				c1.7-0.2,3.1-0.9,3.6-2.7C257.2,200.2,257.3,199.1,257.5,197.9z"/>
			<path class="st1" d="M138.6,206c0-0.9,0-1.5,0-2.2c2.9,0.4,5.7,0.6,7.9-1.9c1.6-1.9,1.9-4.3,2-6.8c-0.2,0.1-0.3,0.1-0.4,0.2
				c-1.7,2.1-4,2.5-6.4,2.1c-2.7-0.4-4.1-2.2-4.6-5.1c-0.6-3.9,1.4-7.4,4.8-8.2c4-0.9,7.3,0.9,8.5,4.8c1.2,4.1,0.9,8.3-0.8,12.2
				c-1.3,3-3.9,4.5-7.1,4.7C141.2,206,140,206,138.6,206z M139.3,191.1c0.1,2.4,1.1,4.1,3,4.5c2.2,0.5,4.6-0.3,5.7-1.9
				c1-1.5,0.8-4.1-0.6-5.8c-1.2-1.5-2.8-2.1-4.7-1.7c-1.7,0.4-2.6,1.5-3.1,3.1C139.4,189.8,139.4,190.4,139.3,191.1z"/>
			<path class="st1" d="M183.9,184.3c0,0.7,0,1.2,0,1.9c-2.8-0.5-5.6-0.5-7.7,1.8c-1.7,1.9-2,4.3-2.2,7c0.2-0.2,0.4-0.2,0.4-0.3
				c1.6-2.1,3.9-2.5,6.3-2.1c2.8,0.5,4.6,2.6,4.7,5.4c0,0.9,0.1,1.8-0.1,2.6c-0.5,3-2.4,4.9-5.3,5.4c-3.1,0.5-5.7-0.7-7.2-3.4
				c-1-1.8-1.3-3.9-1.3-5.9c0-1.8,0.2-3.7,0.6-5.5C173.6,185.3,178.2,183.1,183.9,184.3z M183.3,199c0.1-3-1.4-4.7-4.1-4.7
				c-2.8-0.1-5.1,1.7-5.1,4c-0.1,3.2,2,5.7,4.7,5.8C181.5,204.1,183.2,202.2,183.3,199z"/>
			<path class="st1" d="M166.7,186.2c-2.9-0.5-5.6-0.5-7.7,1.8c-1.7,1.9-2,4.3-2.2,6.8c0.1,0.1,0.2,0.2,0.3,0.3
				c0.1-0.2,0.2-0.5,0.4-0.7c1.8-2,4.1-2.2,6.5-1.7c2.2,0.5,3.6,2,4.1,4.2c0.9,4.2-0.7,8.4-5.4,9.1c-4,0.6-7.1-1.7-8-6
				c-0.7-3.5-0.5-7.1,0.7-10.5c1.9-5.1,6.6-6,10.6-5.3c0.2,0,0.5,0.3,0.5,0.5C166.8,185.2,166.7,185.6,166.7,186.2z M156.8,198.4
				c0,3.1,2.2,5.6,4.8,5.6c2.7,0,4.4-1.9,4.4-5.1c0-2.9-1.6-4.6-4.3-4.6C159,194.3,156.8,196.1,156.8,198.4z"/>
			<path class="st1" d="M108.9,198.1c-3.8,0-7.4,0-11.1,0c-0.4,3.5,2,6.1,5.4,5.8c1.6-0.1,3.1-0.5,4.7-0.7c0.4,1.5,0.3,2-1.4,2.3
				c-1.7,0.3-3.4,0.6-5.1,0.4c-3.4-0.4-5.5-2.5-6.1-5.9c-0.4-2.5-0.3-4.9,1-7.2c1.4-2.6,4.2-3.8,7.2-3.3c2.8,0.5,4.7,2.6,5.1,5.5
				C108.7,196,108.8,196.9,108.9,198.1z M97.8,196.2c2.7,0,5.3,0,7.9,0c0.2,0,0.5-0.3,0.5-0.4c0.3-1.6-1.1-3.8-2.7-4.2
				C100.5,190.7,97.8,192.8,97.8,196.2z"/>
			<path class="st1" d="M59,198c-3.7,0-7.3,0-10.9,0c-0.6,2.5,1.2,5.6,4,5.8c1.7,0.1,3.4-0.3,5-0.5c0.3,0,0.7-0.2,1-0.3
				c0.5,1.7,0.4,2-1.2,2.5c-1.9,0.6-3.8,0.7-5.7,0.3c-2.8-0.5-4.6-2.2-5.4-4.9c-0.7-2.5-0.6-5,0.4-7.4c1.3-3,4.2-4.6,7.4-4.1
				c3.1,0.5,5.1,2.8,5.3,6.1C59,196.3,59,197.1,59,198z M48.1,196.1c2.8,0,5.6,0,8.3,0c0.3-2.6-1.2-4.6-3.5-4.8
				C50.2,191.1,48.2,193.1,48.1,196.1z"/>
			<path class="st1" d="M641,198.1c0,3.6,1.7,5.7,4.8,5.8c1.4,0.1,2.9-0.3,4.3-0.5c0.4-0.1,0.7-0.2,1-0.3c0.4,1.8,0.3,2.2-1.4,2.5
				s-3.5,0.5-5.2,0.3c-3.3-0.4-5.2-2.5-5.8-5.8c-0.4-2.4-0.3-4.9,0.9-7.1c1.3-2.6,4.2-4,7.2-3.4c2.9,0.5,4.8,2.6,5.2,5.7
				c0.3,2.9,0.3,2.9-2.6,2.9c-2.4,0-4.8,0-7.2,0C641.8,198.1,641.5,198.1,641,198.1z M641.2,196.2c2.6,0,5.2,0,7.8,0
				c0.2,0,0.6-0.3,0.6-0.5c0.2-1.6-1-3.7-2.5-4.2C644,190.5,641,192.8,641.2,196.2z"/>
			<path class="st1" d="M445.9,203.3c-1.9,2.6-4.3,3-7.1,2.5c-2-0.4-3.1-1.6-3.4-3.7c-0.3-2.1,0.4-3.9,2.2-4.7
				c1.6-0.6,3.3-0.9,5-1.2c0.8-0.2,1.7,0,2.6-0.1c0.2,0,0.6-0.4,0.6-0.6c0.3-2.9-1.5-4.6-4.4-4.1c-1.2,0.2-2.4,0.6-3.7,1
				c-0.2-0.4-0.4-1-0.7-1.6c2.1-1.1,4.3-1.6,6.6-1.3c3.2,0.4,4.4,1.9,4.4,5.1c0,3.4,0,6.8,0,10.1c0,0.4,0.2,1-0.6,1
				c-0.6,0-1.2,0.2-1.3-0.8C446.3,204.5,446.1,204,445.9,203.3z M441,204c3.3,0,5.1-2.1,4.9-5.7c0-0.2-0.4-0.6-0.6-0.6
				c-1.7,0.1-3.5,0.2-5.1,0.6c-1.7,0.4-2.5,1.8-2.3,3.4C438.1,203.3,439.2,204.1,441,204z"/>
			<path class="st1" d="M578.8,205.6c-1.5,0.4-1.5,0.4-2.2-2.1c-0.2,0.2-0.5,0.4-0.7,0.6c-1.9,2-5.2,2.6-7.7,1.3
				c-1.5-0.8-2.1-2.1-2.2-3.7c-0.1-1.7,0.4-3.2,1.9-4.1c1.6-1,3.4-1.2,5.3-1.3c1.1-0.1,2.1,0,3.2,0c0-0.9,0.1-1.5,0-2.2
				c-0.2-1.7-1.3-2.8-3.2-2.7c-1.6,0.1-3.1,0.6-4.8,0.9c-0.1-0.3-0.4-0.8-0.6-1.5c1.5-1,3.2-1.3,4.8-1.4c0.4,0,0.7,0,1.1,0
				c3.4,0.1,5,1.8,5.1,5.2c0,3.4,0,6.8,0,10.2C578.8,205,578.8,205.3,578.8,205.6z M576.4,197.8c-1.1,0.1-2.2,0.1-3.2,0.2
				c-0.4,0-0.9,0.1-1.3,0.2c-0.6,0.2-1.2,0.3-1.8,0.6c-1.3,0.6-1.8,1.9-1.5,3.3c0.3,1.3,1.2,2,2.7,2.1
				C574.9,204.2,577,201.8,576.4,197.8z"/>
			<path class="st1" d="M539.4,192.3c-0.2-0.4-0.4-0.9-0.6-1.6c2.8-1.3,5.5-1.8,8.4-0.8c1.6,0.5,2.4,1.8,2.5,3.3
				c0.1,4.1,0,8.2,0,12.3c-1.5,0.4-1.6,0.3-1.9-1.1c-0.1-0.3-0.2-0.6-0.3-1.1c-1.1,1.4-2.3,2.4-4,2.5c-0.9,0.1-1.8,0.1-2.7,0
				c-2.2-0.3-3.6-1.7-3.8-3.9c-0.3-2.3,0.7-4,2.8-4.9c1.9-0.8,3.9-0.9,6-0.9c1.9,0,1.9,0,1.7-2c-0.3-2-1.3-3-3.3-2.9
				C542.6,191.5,541.1,192,539.4,192.3z M547.3,197.8c-1.1,0.1-2.2,0.1-3.3,0.2c-0.3,0-0.7,0.1-1,0.1c-0.7,0.2-1.5,0.3-2.2,0.7
				c-1.2,0.6-1.7,2-1.3,3.4c0.3,1.1,1.2,1.9,2.5,1.9c0.8,0,1.7-0.1,2.5-0.3C546.8,203,547.8,200.8,547.3,197.8z"/>
			<path class="st1" d="M242.2,197.1c-0.1,2.9-0.4,5.1-2.1,6.8c-2.1,2.3-4.8,2.6-7.7,1.8c-2.9-0.8-4.3-3-4.9-5.8
				c-0.4-2-0.3-3.9,0.4-5.8c1-3,3.4-4.6,6.8-4.6c3.3,0,5.8,1.6,6.8,4.6C241.9,195.2,242.1,196.4,242.2,197.1z M239.9,197.5
				c-0.2-1.1-0.4-2.3-0.8-3.4c-0.7-1.9-2.2-2.8-4.3-2.7c-2,0-3.5,0.8-4.2,2.7c-0.9,2.3-0.9,4.7,0,7.1c0.7,2,2.3,2.9,4.5,2.9
				c2.1,0,3.6-1.1,4.2-3.1C239.5,199.9,239.6,198.8,239.9,197.5z"/>
			<path class="st1" d="M480.4,197.5c0.1-0.9,0.2-1.8,0.4-2.7c0.9-3.8,3.7-5.7,7.8-5.4c3.4,0.2,6.1,2.8,6.4,6.4
				c0.1,1.6,0.1,3.4-0.3,5c-0.8,3.5-3.6,5.3-7.6,5.2c-3.2-0.1-5.8-2.5-6.4-5.9C480.6,199.3,480.5,198.5,480.4,197.5z M493,197.6
				c-0.3-1.2-0.5-2.6-1.1-3.9c-0.8-1.8-2.5-2.4-4.3-2.3c-1.8,0.1-3.3,0.8-4,2.6c-1,2.5-1,5,0,7.4c0.8,1.9,2.4,2.7,4.4,2.7
				s3.4-0.9,4.1-2.8C492.5,200.1,492.6,198.9,493,197.6z"/>
			<path class="st1" d="M341.2,197.5c0.1-0.9,0.2-1.8,0.4-2.7c0.9-3.8,3.7-5.7,7.9-5.4c3.4,0.2,6.1,2.9,6.4,6.5
				c0.1,1.5,0.1,3.1-0.2,4.6c-0.8,3.7-3.5,5.6-7.5,5.5c-3.3-0.1-6-2.4-6.6-5.9C341.4,199.3,341.3,198.4,341.2,197.5z M353.6,198
				c-0.1-1.2-0.2-2-0.3-2.7c-0.5-2.4-2.1-3.8-4.4-3.9c-2.4-0.1-4.1,1-4.8,3.2c-0.7,2.2-0.7,4.4,0.1,6.5c0.6,1.9,2.1,2.9,4.1,3
				c2.2,0.1,3.8-0.8,4.6-2.7C353.3,200.2,353.4,198.9,353.6,198z"/>
			<path class="st1" d="M388.9,206c-4.1,0-7-2.8-7.2-7c-0.1-1.5,0-3.2,0.4-4.7c0.9-3.2,3.4-4.9,6.8-4.9c3.4,0,5.9,1.7,6.9,4.9
				c0.7,2.2,0.7,4.5,0.1,6.7C394.9,204.3,392.5,206,388.9,206z M394.1,197.8c0,0-0.1,0-0.1-0.1c-0.1-0.8-0.1-1.6-0.3-2.4
				c-0.5-2.4-1.9-3.7-4.2-4c-2.2-0.2-4,0.7-4.8,2.5c-1,2.5-1,5,0,7.5c0.7,1.8,2.2,2.6,4.2,2.6c1.9,0,3.5-0.7,4.2-2.6
				C393.6,200.3,393.8,199,394.1,197.8z"/>
			<path class="st1" d="M276.3,205.6c-0.1-0.7-0.3-1.3-0.4-2c-0.2,0.1-0.3,0.1-0.4,0.2c-1.7,2.5-5.9,2.5-8.1,1.5
				c-2-0.9-2.6-2.7-2.6-4.6c-0.1-3.4,0-6.9,0-10.3c0-1.1,0.8-0.7,1.3-0.8c0.6-0.1,1.1-0.1,1.1,0.8c0,3.1,0,6.3,0,9.4
				c0,2.6,0.9,3.8,3,4.1c2.7,0.4,4.8-0.9,5.3-3.3c0.2-1,0.3-2.1,0.3-3.1c0-2.2,0-4.5,0-6.7c0-1.3,0-1.3,1.3-1.3c0.3,0,0.6,0,0.9,0.1
				c0,5.3,0,10.6,0,15.9C277.5,205.6,276.9,205.6,276.3,205.6z"/>
			<path class="st1" d="M307.5,191.9c1.6-2.1,3.7-2.7,6.1-2.5c3.1,0.2,4.8,1.9,4.9,5c0.1,3.6,0,7.2,0,10.7c0,0.2,0,0.3-0.1,0.6
				c-0.4,0-0.7,0-1.1,0.1c-0.9,0.1-1.2-0.2-1.2-1.1c0.1-2.8,0-5.7,0-8.5c0-0.9,0-1.8-0.3-2.6c-0.3-0.7-1-1.5-1.7-1.8
				c-3.2-1.4-6.4,0.6-6.6,4c-0.2,3-0.1,5.9-0.2,8.9c0,0.4-0.1,1-0.3,1c-0.6,0.1-1.2,0.1-1.8,0c-0.1,0-0.2-0.5-0.2-0.7
				c0-4.8,0-9.6,0-14.4c0-0.5,0.1-0.9,0.7-0.8c0.5,0.1,1.2-0.2,1.3,0.6C307.3,190.8,307.4,191.2,307.5,191.9z"/>
			<path class="st1" d="M73.2,190.4c-0.3,0.7-0.6,1.3-0.8,1.9c-2-0.7-3.9-1.3-5.9-0.8c-1,0.2-1.8,0.6-2,1.7
				c-0.2,1.1,0.5,1.8,1.4,2.2c1.5,0.7,3.1,1.3,4.7,2c1.4,0.7,2.7,1.5,2.9,3.3c0.3,1.8-0.4,3.6-2.1,4.4c-2.8,1.4-5.8,1.2-8.7,0.1
				c-0.2-0.1-0.4-0.5-0.5-0.7c-0.1-0.5,0-1,0-1.3c1.9,0.3,3.7,0.6,5.5,0.8c0.6,0.1,1.3-0.2,1.9-0.4c0.9-0.3,1.4-0.9,1.5-1.8
				c0.1-0.9-0.3-1.7-1.1-2.1c-1-0.5-2-1-3-1.4c-1-0.5-2.1-0.9-3.1-1.4c-1.4-0.8-2-2-1.9-3.7c0.1-1.5,1-2.6,2.3-3.1
				C67.5,188.9,70.3,189.3,73.2,190.4z"/>
			<path class="st1" d="M293.3,189.7c0.2,1.2,0,2-0.6,2.9c-2.5,3.4-4.8,6.8-7.2,10.2c-0.2,0.3-0.3,0.5-0.6,0.9c3,0,5.8,0,8.7,0
				c0,0.5,0.1,0.9,0.1,1.2c-0.1,0.3-0.4,0.6-0.6,0.6c-3.4,0-6.9,0-10.3,0c-0.2,0-0.7-0.4-0.6-0.6c0.1-0.6,0.2-1.2,0.5-1.7
				c2.5-3.6,5-7.1,7.5-10.7c0.2-0.3,0.5-0.7,0.8-1.2c-2.8,0-5.4,0-8.1,0c0-0.7,0-1.2,0-1.9C286.3,189.7,289.8,189.7,293.3,189.7z"/>
			<path class="st1" d="M589.3,189.6c0.8,0,1.5-0.1,2,0c0.3,0.1,0.6,0.5,0.8,0.9c1.5,4.1,2.9,8.2,4.3,12.3c0.1,0.2,0.1,0.3,0.3,0.7
				c0.6-1.6,1-3.1,1.5-4.5c1-2.7,2-5.4,2.9-8.1c0.3-1.1,0.9-1.5,1.9-1.3c0.3,0,0.6,0,1,0c-0.1,0.4-0.2,0.7-0.3,0.9
				c-1.8,4.7-3.6,9.5-5.4,14.2c-0.3,0.7-0.6,1-1.4,0.9c-2.2-0.1-1.7,0.3-2.4-1.6c-1.7-4.5-3.4-8.9-5.1-13.4
				C589.5,190.4,589.4,190.2,589.3,189.6z"/>
			<path class="st1" d="M378.2,192c-1.4-0.2-2.7-0.5-4-0.5c-2,0-3.4,1.1-4,3c-0.7,2.1-0.7,4.2,0,6.3c0.8,2.6,3.1,3.6,6.2,2.9
				c0.7-0.1,1.3-0.3,2-0.5c0.5,1.8,0.2,2.3-1.5,2.5c-1.2,0.2-2.5,0.3-3.7,0.1c-3-0.4-4.9-2.3-5.6-5.3c-0.4-2-0.4-4,0.1-6
				c1-3.8,4.4-5.8,8.5-5.1c0.9,0.2,1.7,0.4,2.7,0.6C378.6,190.9,378.4,191.5,378.2,192z"/>
			<path class="st1" d="M635.4,203.3v0.1c0,2,0.4,1.9-1.8,2.3c-1.2,0.2-2.4,0.3-3.6,0.1c-3-0.4-4.9-2.2-5.6-5.2
				c-0.5-2-0.4-3.9,0-5.9c0.9-4,4.3-6,8.6-5.3c0.7,0.1,1.4,0.3,2,0.5c0.2,0,0.3,0.2,0.6,0.3c-0.2,0.7-0.5,1.3-0.6,1.7
				c-1.5-0.2-2.8-0.4-4.2-0.4c-1.7,0-3,1-3.6,2.6c-0.9,2.4-0.9,4.8,0,7.1c0.7,1.9,2.4,2.9,4.5,2.7
				C632.9,203.8,634.1,203.5,635.4,203.3z"/>
			<path class="st1" d="M128.6,205.6c-0.8,0-1.5,0-2.2,0c0-6.2,0-12.4,0-18.7c-1.4,1.1-2.7,2.2-4.1,3.3c-0.4-0.5-0.8-1-1.3-1.6
				c1.9-1.4,3.6-2.9,5.5-4.1c0.5-0.3,1.4-0.2,2.2-0.2C128.6,191.5,128.6,198.5,128.6,205.6z"/>
			<path class="st1" d="M557.1,192.6c2.7-3,4.4-3.8,6.9-3c-0.1,0.7-0.2,1.3-0.3,2.1c-1.7-0.4-3.3-0.3-4.6,0.9s-1.9,2.7-1.9,4.5
				c0,2.5,0,5.1,0,7.6c0,1-0.5,1-1.2,1c-0.8,0-1.2,0-1.2-1c0.1-4.7,0-9.4,0-14c0-0.7,0.1-1.1,0.9-1c0.7,0,1.2,0.1,1.2,0.9
				C556.9,191.2,557.1,191.8,557.1,192.6z"/>
			<path class="st1" d="M218.3,192.7c0.6-0.7,1-1.2,1.4-1.7c1.3-1.4,3-1.8,4.8-1.6c0.2,0,0.6,0.5,0.6,0.8c0,0.5-0.1,1-0.2,1.4
				c-3.6-0.3-5.5,0.9-6.3,3.8c-0.1,0.6-0.2,1.2-0.2,1.8c0,2.5,0,5.1,0,7.6c0,1-0.6,0.9-1.2,0.9c-0.7,0-1.2,0.1-1.2-0.9
				c0-4.7,0-9.5,0-14.2c0-0.7,0.2-1,0.9-0.9c0.7,0,1.2,0,1.2,0.9C218.1,191.2,218.2,191.8,218.3,192.7z"/>
			<path class="st1" d="M501.9,205.7c-0.8,0-1.5,0-2.3,0c0-5.3,0-10.6,0-15.9c0.6,0,1.1,0,1.8,0c0.1,0.9,0.2,1.8,0.3,2.6
				c1-0.8,1.9-1.8,3-2.5c1.2-0.7,2.5-0.6,4-0.3c-0.1,0.7-0.2,1.3-0.3,2c-0.1,0-0.2,0.1-0.3,0.1c-3.6-0.9-6.2,2.1-6.2,5.2
				C501.9,199.8,501.9,202.7,501.9,205.7z"/>
			<path class="st1" d="M300,197.7c0,2.3,0,4.7,0,7c0,0.9-0.4,1-1.2,1c-0.7,0-1.3,0.1-1.3-1c0-4.7,0-9.4,0-14.1c0-0.9,0.4-1,1.2-1
				c0.7,0,1.3-0.1,1.3,1C299.9,193,300,195.3,300,197.7z"/>
			<path class="st1" d="M640.5,187.4c0.9-1,1.6-1.8,2.3-2.6c0.3-0.3,0.6-0.6,0.7-0.9c0.6-1.4,1.8-1.2,2.9-1.1c0.2,0,0.4,0.1,0.5,0.3
				c1.2,1.3,2.3,2.7,3.4,4c0.1,0.1,0.1,0.2,0.1,0.3c-1.1,0.3-1.9,0.1-2.7-0.7c-0.7-0.7-1.4-1.3-2.2-1.9
				C643.9,185.8,643.1,187.9,640.5,187.4z"/>
			<path class="st1" d="M656,204.1c0-1.3,0.6-1.9,1.7-1.9c1.2,0,1.8,0.7,1.7,2.1c0,1.2-0.7,1.9-1.8,1.9
				C656.5,206.1,656,205.4,656,204.1z"/>
			<path class="st1" d="M300.2,185.3c0,0.9-0.6,1.6-1.5,1.5c-0.8,0-1.4-0.7-1.4-1.7s0.5-1.5,1.5-1.5
				C299.7,183.7,300.2,184.3,300.2,185.3z"/>
			<path class="st1" d="M605.9,197.5c0.1-0.9,0.2-1.9,0.4-2.8c0.9-3.7,3.9-5.6,8-5.3c3.4,0.3,6.1,3,6.3,6.6c0.1,1.8,0,3.6-0.4,5.3
				c-0.9,3.3-3.8,4.9-7.6,4.7c-3.1-0.2-5.6-2.5-6.3-5.8C606.1,199.3,606,198.4,605.9,197.5z M618.3,197.7c-0.1-0.8-0.1-1.5-0.3-2.3
				c-0.4-2.5-2.1-4-4.5-4.1c-2.6-0.1-4.4,1.2-4.8,3.8c-0.3,1.6-0.3,3.3,0,4.9c0.5,2.7,2.2,4,4.9,3.9c2.4-0.1,4-1.6,4.5-4.2
				C618.2,199.1,618.2,198.4,618.3,197.7z"/>
		</g>
		<g>
			<g>
				<path class="st4" d="M171.4,165.1H140V29.3c16-4.5,30.1,1.1,31.4,17.1c0.7,9.2,0,19.5,0,29.8V165.1z"/>
			</g>
			<g>
				<path class="st4" d="M328.5,165.1H295c-13.8-34.1-27.6-68.3-41.1-102.6c-13.2,33.8-25.4,68.6-38.4,102.6h-34.7
					c17.7-45.2,34.9-90.8,52.7-135.8c22.4-5.7,39.2,3,47.9,18.6c3.2,5.7,5.7,12.7,8.2,19.2C302.2,99.2,317,135.6,328.5,165.1
					L328.5,165.1z"/>
			</g>
			<g>
				<path class="st4" d="M360.2,133.8h59.1c0.7,9.8,0.1,21,0.3,31.4c-28.1-2.6-64.7,6.5-80.7-7.6c-5.4-4.7-9.4-13.4-10.1-22.8
					c-1.1-16.7,0-34.8,0-52.7V29.3c15.9-4.5,30.1,1,31.4,17.1c1,12.8,0,28.5,0,43.8L360.2,133.8L360.2,133.8z"/>
			</g>
			<g>
				<path class="st4" d="M525.9,113.3v-84H557c0.7,44.6,0.1,90.6,0.3,135.8c-31.2,7.2-45-15.2-57.2-31.7
					c-13-17.4-27.1-35.2-39.6-52.1v83.8h-31.4V29.3c4-1,8.6-1.6,14-1.2c24,1.9,35.2,22.3,46.6,37.5
					C502.5,82.6,514.4,98.8,525.9,113.3L525.9,113.3z"/>
			</g>
			<g>
				<path class="st4" d="M129,29.3c4.1,13.5,0.2,26.4-9.8,30.2c-9.8,3.7-20.8,0.7-30.5,1.5c-18.3,1.6-34.3,17.9-32.6,39.6
					c1.3,17.8,15.4,31.8,33.5,33.2c11,0.9,22.9-2.1,31.7,2.5c8.2,4.2,11.5,16.9,7.6,28.9c-15.8-0.6-29.2,0.8-42.6,0
					c-18.9-1.2-33.6-10.7-43.8-21.6c-10.7-11.3-18.1-28.2-17.7-47.5c0.4-19.2,8.2-34.8,18.9-46.3c10.5-11.3,25.9-19.5,46-20.4
					C102.8,28.7,115.3,29.7,129,29.3L129,29.3z"/>
			</g>
			<g>
				<path class="st4" d="M567,29.3h90.8c2.8,7.2,1.6,18.5-1.2,23.2c-8.7,14.3-37.6,6-58.1,8.2c-0.7,6.3-0.1,13.9-0.3,20.7
					c14.5,0.7,30.3,0.1,45.4,0.3V113h-45.4v21h59.7v31.1c-20.7-1-43.4,1.3-62.5,0c-16.2-1.2-27.4-13-28.6-29.8
					c-1.2-16.3,0-34.6,0-52.7c0-17.7,0-35.5,0-52.4C566.6,29.7,566.6,29.3,567,29.3L567,29.3z"/>
			</g>
		</g>
	</g>
</g>
</svg>
